<mxfile host="app.diagrams.net" modified="2024-01-03T15:39:07.259Z" agent="Mozilla/5.0 (Macintosh; Intel Mac OS X 10_15_7) AppleWebKit/537.36 (KHTML, like Gecko) Chrome/120.0.0.0 Safari/537.36" version="22.1.16" etag="m_UVdRXVe2p_1kt-FyaE" type="github">
  <diagram name="페이지-1" id="qFB67nF9oNWiApeHcwv-">
    <mxGraphModel>
      <root>
        <mxCell id="0" />
        <mxCell id="1" parent="0" />
        <mxCell id="2" value="Fed" style="whiteSpace=wrap;strokeWidth=2;" vertex="1" parent="1">
          <mxGeometry x="234" width="41" height="34" as="geometry" />
        </mxCell>
        <mxCell id="3" value="일본은행" style="whiteSpace=wrap;strokeWidth=2;" vertex="1" parent="1">
          <mxGeometry x="159" y="84" width="70" height="34" as="geometry" />
        </mxCell>
        <mxCell id="4" value="한국은행" style="whiteSpace=wrap;strokeWidth=2;" vertex="1" parent="1">
          <mxGeometry x="279" y="84" width="70" height="34" as="geometry" />
        </mxCell>
        <mxCell id="5" value="제 1금융권" style="whiteSpace=wrap;strokeWidth=2;" vertex="1" parent="1">
          <mxGeometry x="75" y="167" width="84" height="34" as="geometry" />
        </mxCell>
        <mxCell id="6" value="제 2금융권" style="whiteSpace=wrap;strokeWidth=2;" vertex="1" parent="1">
          <mxGeometry x="216" y="167" width="84" height="34" as="geometry" />
        </mxCell>
        <mxCell id="7" value="제 3금융권" style="whiteSpace=wrap;strokeWidth=2;" vertex="1" parent="1">
          <mxGeometry x="349" y="167" width="84" height="34" as="geometry" />
        </mxCell>
        <mxCell id="8" value="기업" style="whiteSpace=wrap;strokeWidth=2;" vertex="1" parent="1">
          <mxGeometry x="86" y="251" width="43" height="34" as="geometry" />
        </mxCell>
        <mxCell id="9" value="국민" style="whiteSpace=wrap;strokeWidth=2;" vertex="1" parent="1">
          <mxGeometry x="420" y="251" width="43" height="34" as="geometry" />
        </mxCell>
        <mxCell id="10" value="채권 시장" style="whiteSpace=wrap;strokeWidth=2;" vertex="1" parent="1">
          <mxGeometry y="334" width="75" height="34" as="geometry" />
        </mxCell>
        <mxCell id="11" value="금융 파생상품" style="whiteSpace=wrap;strokeWidth=2;" vertex="1" parent="1">
          <mxGeometry x="125" y="334" width="103" height="34" as="geometry" />
        </mxCell>
        <mxCell id="12" value="투자자" style="whiteSpace=wrap;strokeWidth=2;" vertex="1" parent="1">
          <mxGeometry x="278" y="334" width="57" height="34" as="geometry" />
        </mxCell>
        <mxCell id="13" value="소비자" style="whiteSpace=wrap;strokeWidth=2;" vertex="1" parent="1">
          <mxGeometry x="413" y="334" width="57" height="34" as="geometry" />
        </mxCell>
        <mxCell id="14" value="대출자" style="whiteSpace=wrap;strokeWidth=2;" vertex="1" parent="1">
          <mxGeometry x="520" y="334" width="57" height="34" as="geometry" />
        </mxCell>
        <mxCell id="15" value="" style="curved=1;startArrow=none;endArrow=block;exitX=-0.010718368902439025;exitY=0.9113122759326356;entryX=0.49852120535714284;entryY=-0.014705882352941176;" edge="1" parent="1" source="2" target="3">
          <mxGeometry relative="1" as="geometry">
            <Array as="points">
              <mxPoint x="194" y="59" />
            </Array>
          </mxGeometry>
        </mxCell>
        <mxCell id="16" value="" style="curved=1;startArrow=none;endArrow=block;exitX=0.990234375;exitY=0.9113122759326356;entryX=0.5037667410714286;entryY=-0.014705882352941176;" edge="1" parent="1" source="2" target="4">
          <mxGeometry relative="1" as="geometry">
            <Array as="points">
              <mxPoint x="314" y="59" />
            </Array>
          </mxGeometry>
        </mxCell>
        <mxCell id="17" value="" style="curved=1;startArrow=none;endArrow=block;exitX=0.0010988625427716312;exitY=0.9705882352941176;entryX=0.453517212227331;entryY=0;" edge="1" parent="1" source="3" target="5">
          <mxGeometry relative="1" as="geometry">
            <Array as="points">
              <mxPoint x="107" y="142" />
            </Array>
          </mxGeometry>
        </mxCell>
        <mxCell id="18" value="" style="curved=1;startArrow=none;endArrow=block;exitX=0.5531597519247222;exitY=0.9705882352941176;entryX=0.23561804961505572;entryY=0;" edge="1" parent="1" source="3" target="6">
          <mxGeometry relative="1" as="geometry">
            <Array as="points">
              <mxPoint x="203" y="142" />
            </Array>
          </mxGeometry>
        </mxCell>
        <mxCell id="19" value="" style="curved=1;startArrow=none;endArrow=block;exitX=1.0011439732142857;exitY=0.7728330237055429;entryX=0.2587133211256062;entryY=0;" edge="1" parent="1" source="3" target="7">
          <mxGeometry relative="1" as="geometry">
            <Array as="points">
              <mxPoint x="340" y="142" />
            </Array>
          </mxGeometry>
        </mxCell>
        <mxCell id="20" value="" style="curved=1;startArrow=none;endArrow=block;exitX=0.0011439732142857143;exitY=0.8081564772444874;entryX=0.8180447141431422;entryY=0;" edge="1" parent="1" source="4" target="5">
          <mxGeometry relative="1" as="geometry">
            <Array as="points">
              <mxPoint x="183" y="142" />
            </Array>
          </mxGeometry>
        </mxCell>
        <mxCell id="21" value="" style="curved=1;startArrow=none;endArrow=block;exitX=0.5389498903977759;exitY=0.9705882352941176;entryX=0.7942984009659251;entryY=0;" edge="1" parent="1" source="4" target="6">
          <mxGeometry relative="1" as="geometry">
            <Array as="points">
              <mxPoint x="320" y="142" />
            </Array>
          </mxGeometry>
        </mxCell>
        <mxCell id="22" value="" style="curved=1;startArrow=none;endArrow=block;exitX=1.0011890838857993;exitY=0.9705882352941176;entryX=0.5483894097964782;entryY=0;" edge="1" parent="1" source="4" target="7">
          <mxGeometry relative="1" as="geometry">
            <Array as="points">
              <mxPoint x="401" y="142" />
            </Array>
          </mxGeometry>
        </mxCell>
        <mxCell id="23" value="" style="curved=1;startArrow=none;endArrow=block;exitX=0.25936436279227254;exitY=0.9852941176470589;entryX=0.11159494238267656;entryY=-0.014705882352941176;" edge="1" parent="1" source="5" target="8">
          <mxGeometry relative="1" as="geometry">
            <Array as="points">
              <mxPoint x="66" y="226" />
            </Array>
          </mxGeometry>
        </mxCell>
        <mxCell id="24" value="" style="curved=1;startArrow=none;endArrow=block;exitX=0.9987676711309523;exitY=0.7056721973652391;entryX=0.008357558139534883;entryY=0.16485342153660387;" edge="1" parent="1" source="5" target="9">
          <mxGeometry relative="1" as="geometry">
            <Array as="points">
              <mxPoint x="358" y="226" />
            </Array>
          </mxGeometry>
        </mxCell>
        <mxCell id="25" value="" style="curved=1;startArrow=none;endArrow=block;exitX=0.04680106862168524;exitY=0.9852941176470589;entryX=0.9872365552325582;entryY=0.01642854830747855;" edge="1" parent="1" source="6" target="8">
          <mxGeometry relative="1" as="geometry">
            <Array as="points">
              <mxPoint x="164" y="226" />
            </Array>
          </mxGeometry>
        </mxCell>
        <mxCell id="26" value="" style="curved=1;startArrow=none;endArrow=block;exitX=0.9912341889880952;exitY=0.7820581625981601;entryX=0.44014151928700773;entryY=-0.014705882352941176;" edge="1" parent="1" source="6" target="9">
          <mxGeometry relative="1" as="geometry">
            <Array as="points">
              <mxPoint x="435" y="226" />
            </Array>
          </mxGeometry>
        </mxCell>
        <mxCell id="27" value="" style="curved=1;startArrow=none;endArrow=block;exitX=0.003138950892857143;exitY=0.8417903068204023;entryX=0.9872365552325582;entryY=0.2865973695909277;" edge="1" parent="1" source="7" target="8">
          <mxGeometry relative="1" as="geometry">
            <Array as="points">
              <mxPoint x="244" y="226" />
            </Array>
          </mxGeometry>
        </mxCell>
        <mxCell id="28" value="" style="curved=1;startArrow=none;endArrow=block;exitX=0.966648733782435;exitY=0.9852941176470589;entryX=0.9425132293552433;entryY=-0.014705882352941176;" edge="1" parent="1" source="7" target="9">
          <mxGeometry relative="1" as="geometry">
            <Array as="points">
              <mxPoint x="489" y="226" />
            </Array>
          </mxGeometry>
        </mxCell>
        <mxCell id="29" value="" style="curved=1;startArrow=none;endArrow=block;exitX=-0.005496002906976744;exitY=0.8549730434164611;entryX=0.50125;entryY=0;" edge="1" parent="1" source="8" target="10">
          <mxGeometry relative="1" as="geometry">
            <Array as="points">
              <mxPoint x="38" y="309" />
            </Array>
          </mxGeometry>
        </mxCell>
        <mxCell id="30" value="" style="curved=1;startArrow=none;endArrow=block;exitX=0.9872365552325582;exitY=0.8549730434164611;entryX=0.5011756674757282;entryY=0;" edge="1" parent="1" source="8" target="11">
          <mxGeometry relative="1" as="geometry">
            <Array as="points">
              <mxPoint x="177" y="309" />
            </Array>
          </mxGeometry>
        </mxCell>
        <mxCell id="31" value="" style="curved=1;startArrow=none;endArrow=block;exitX=0.008357558139534883;exitY=0.6715264094038891;entryX=0.4967790570175439;entryY=0;" edge="1" parent="1" source="9" target="12">
          <mxGeometry relative="1" as="geometry">
            <Array as="points">
              <mxPoint x="306" y="309" />
            </Array>
          </mxGeometry>
        </mxCell>
        <mxCell id="32" value="" style="curved=1;startArrow=none;endArrow=block;exitX=0.5047238372093024;exitY=0.9705882352941176;entryX=0.5035635964912281;entryY=0;" edge="1" parent="1" source="9" target="13">
          <mxGeometry relative="1" as="geometry">
            <Array as="points" />
          </mxGeometry>
        </mxCell>
        <mxCell id="33" value="" style="curved=1;startArrow=none;endArrow=block;exitX=1.0010901162790697;exitY=0.7239797018917583;entryX=0.49520285087719296;entryY=0;" edge="1" parent="1" source="9" target="14">
          <mxGeometry relative="1" as="geometry">
            <Array as="points">
              <mxPoint x="548" y="309" />
            </Array>
          </mxGeometry>
        </mxCell>
      </root>
    </mxGraphModel>
  </diagram>
</mxfile>
